<svg width="1728" height="2025" viewBox="0 0 1728 2025" fill="none" xmlns="http://www.w3.org/2000/svg">
<mask id="mask0_48_3803" style="mask-type:luminance" maskUnits="userSpaceOnUse" x="-195" y="-91" width="2118" height="2116">
<path d="M-193.997 2024.5V-90.4121H1921.98V2024.5H-193.997Z" fill="white" stroke="white"/>
</mask>
<g mask="url(#mask0_48_3803)">
<path d="M294.031 -90.9121L212.615 85.3786M294.031 -90.9121H131.2M294.031 -90.9121L375.464 85.3786M294.031 -90.9121H456.879M212.615 85.3786L131.2 -90.9121M212.615 85.3786L131.2 261.652M212.615 85.3786H49.7845M212.615 85.3786L294.048 261.652M212.615 85.3786H375.464M131.2 -90.9121L49.7669 85.3786L-31.6485 -90.9121M131.2 -90.9121H-31.6485M131.2 -90.9121L49.7845 85.361M131.2 -90.9121L212.615 85.361M212.615 85.361L294.048 -90.9121L375.464 85.361M212.615 85.361H375.464M212.615 85.361H49.7845M375.464 85.361L456.879 -90.9121M375.464 85.361H538.312M375.464 85.361L294.048 261.652M375.464 85.361L456.897 261.652M456.879 -90.9121L375.464 85.3786M456.879 -90.9121L538.312 85.361M456.879 -90.9121L538.312 85.3786M456.879 -90.9121H619.727M375.464 85.3786L456.879 261.652M375.464 85.3786H538.312M375.464 85.3786L294.048 261.652M538.312 85.361L619.727 -90.9121M538.312 85.361H701.16M538.312 85.361L456.897 261.652M538.312 85.361L619.727 261.652M619.727 -90.9121L538.312 85.3786M619.727 -90.9121L701.16 85.361M619.727 -90.9121L701.16 85.3786M619.727 -90.9121H782.575M538.312 85.3786L619.727 261.652M538.312 85.3786H701.16M538.312 85.3786L456.879 261.652M701.16 85.361L782.575 -90.9121M701.16 85.361H863.991M701.16 85.361L619.727 261.652M701.16 85.361L782.575 261.652M782.575 -90.9121L701.16 85.3786M782.575 -90.9121L863.991 85.361M782.575 -90.9121L863.991 85.3786M782.575 -90.9121H945.424M701.16 85.3786L782.575 261.652M701.16 85.3786H863.991M701.16 85.3786L619.727 261.652M863.991 85.361L945.424 -90.9121M863.991 85.361H1026.84M863.991 85.361L782.575 261.652M863.991 85.361L945.424 261.652M-194.497 -90.9121L-275.912 85.361H-113.064M-194.497 -90.9121L-113.064 85.361M-194.497 -90.9121L-113.064 85.3786M-194.497 -90.9121H-31.6485M-113.064 85.361L-31.6485 -90.9121M-113.064 85.361H49.7845M-113.064 85.361L-194.497 261.652M-113.064 85.361L-31.6485 261.652M-31.6485 -90.9121L-113.064 85.3786M-31.6485 -90.9121L49.7845 85.361M-113.064 85.3786L-31.6485 261.652M-113.064 85.3786H49.7845M-113.064 85.3786L-194.497 261.652M-113.064 85.3786H-275.912L-194.497 261.652M49.7845 85.361L-31.6485 261.652M49.7845 85.361L131.2 261.652M131.2 261.652L212.633 85.361L294.048 261.652M131.2 261.652H294.048M131.2 261.652L49.7845 85.3786M131.2 261.652H-31.6485M131.2 261.652L212.615 437.942M131.2 261.652L294.031 261.652M131.2 261.652L49.7669 437.942L-31.6485 261.652M131.2 261.652L49.7845 437.925M131.2 261.652L212.615 437.925M294.048 261.652H456.897M294.048 261.652L212.615 437.925M294.048 261.652L375.464 437.925M49.7845 85.3786L-31.6485 261.652M-31.6485 261.652H-194.497M-31.6485 261.652L-113.064 437.942M-31.6485 261.652L-113.064 437.925M-31.6485 261.652L49.7845 437.925M-194.497 261.652L-275.912 437.925H-113.064M-194.497 261.652L-113.064 437.925M-194.497 261.652L-113.064 437.942M863.991 85.3786L782.575 261.652M863.991 85.3786L945.424 -90.9121M863.991 85.3786L945.424 261.652M863.991 85.3786H1026.84M782.575 261.652L619.727 261.652M782.575 261.652L701.16 437.942M782.575 261.652L701.16 437.925M782.575 261.652L863.991 437.925M782.575 261.652L945.424 261.652M782.575 261.652L863.991 437.942M619.727 261.652H456.897M619.727 261.652L538.312 437.942M619.727 261.652L456.879 261.652M619.727 261.652L538.312 437.925M619.727 261.652L701.16 437.925M619.727 261.652L701.16 437.942M456.879 261.652L375.464 437.942M456.879 261.652H294.031M456.879 261.652L375.464 437.925M456.879 261.652L538.312 437.925M456.879 261.652L538.312 437.942M294.031 261.652L212.615 437.942M294.031 261.652L375.464 437.942M212.615 437.942L131.2 614.216M212.615 437.942H49.7845M212.615 437.942L294.048 614.216L375.464 437.942M212.615 437.942H375.464M212.615 437.925H375.464M212.615 437.925H49.7845M375.464 437.925H538.312M375.464 437.925L294.048 614.198M375.464 437.925L456.897 614.198M375.464 437.942L456.879 614.216M375.464 437.942H538.312M538.312 437.925H701.16M538.312 437.925L456.897 614.198M538.312 437.925L619.727 614.198M538.312 437.942L619.727 614.216M538.312 437.942H701.16M538.312 437.942L456.879 614.216M701.16 437.925H863.991M701.16 437.925L619.727 614.198M701.16 437.925L782.575 614.198M701.16 437.942L782.575 614.216M701.16 437.942H863.991M701.16 437.942L619.727 614.216M863.991 437.925L945.424 261.652M863.991 437.925H1026.84M863.991 437.925L782.575 614.198M863.991 437.925L945.424 614.198M-113.064 437.925H49.7845M-113.064 437.925L-194.497 614.198M-113.064 437.925L-31.6485 614.198M-113.064 437.942L-31.6485 614.216M-113.064 437.942H49.7845M-113.064 437.942L-194.497 614.216M-113.064 437.942H-275.912L-194.497 614.216M49.7845 437.925L-31.6485 614.198M49.7845 437.925L131.2 614.198M131.2 614.198L212.633 437.925L294.048 614.198M131.2 614.198H294.048M131.2 614.198H-31.6485M131.2 614.198L49.7845 790.489M131.2 614.198L212.615 790.489M294.048 614.198H456.897M294.048 614.198L212.615 790.489M294.048 614.198L375.464 790.489M131.2 614.216L49.7845 437.942M131.2 614.216L212.615 790.489M131.2 614.216H294.031M131.2 614.216L49.7669 790.489L-31.6485 614.216M131.2 614.216H-31.6485M49.7845 437.942L-31.6485 614.216M-31.6485 614.198H-194.497M-31.6485 614.198L-113.064 790.489M-31.6485 614.198L49.7845 790.489M-31.6485 614.216L-113.064 790.489M-31.6485 614.216H-194.497M-194.497 614.198L-275.912 790.489M-194.497 614.198L-113.064 790.489M-194.497 614.216L-113.064 790.489M863.991 437.942L782.575 614.216M863.991 437.942L945.424 261.652M863.991 437.942L945.424 614.216M863.991 437.942H1026.84M782.575 614.216L701.16 790.489M782.575 614.216H619.727M782.575 614.216L863.991 790.489M782.575 614.216H945.424M619.727 614.198H782.575M619.727 614.198H456.897M619.727 614.198L538.312 790.489M619.727 614.198L701.16 790.489M782.575 614.198L701.16 790.489M782.575 614.198L863.991 790.489M782.575 614.198H945.424M619.727 614.216L538.312 790.489M619.727 614.216H456.879M619.727 614.216L701.16 790.489M456.879 614.216L375.464 790.489M456.879 614.216H294.031M456.879 614.216L538.312 790.489M294.031 614.216L212.615 790.489M294.031 614.216L375.464 790.489M212.615 790.489L375.464 790.489M212.615 790.489L49.7845 790.489M212.615 790.489L131.2 966.779M212.615 790.489L294.048 966.779L375.464 790.489M375.464 790.489L456.879 614.198L538.312 790.489M375.464 790.489H538.312M375.464 790.489L456.879 966.779M375.464 790.489L294.048 966.762M375.464 790.489L456.897 966.762M538.312 790.489H701.16M538.312 790.489L619.727 966.779M538.312 790.489L456.897 966.762M538.312 790.489L619.727 966.762M538.312 790.489L456.879 966.779M701.16 790.489H863.991M701.16 790.489L782.575 966.779M701.16 790.489L619.727 966.762M701.16 790.489L782.575 966.762M701.16 790.489L619.727 966.779M863.991 790.489L782.575 966.779M863.991 790.489L945.424 614.216M863.991 790.489L945.424 614.198M863.991 790.489H1026.84M863.991 790.489L945.424 966.779M863.991 790.489L782.575 966.762M863.991 790.489L945.424 966.762M-275.912 790.489H-113.064M-275.912 790.489L-194.497 966.779M-113.064 790.489H49.7845M-113.064 790.489L-31.6485 966.779M-113.064 790.489L-194.497 966.762M-113.064 790.489L-31.6485 966.762M-113.064 790.489L-194.497 966.779M49.7845 790.489L131.2 966.779M49.7845 790.489L-31.6485 966.762M49.7845 790.489L131.2 966.762M49.7845 790.489L-31.6485 966.779M131.2 966.762L212.633 790.489L294.048 966.762M131.2 966.762H294.048M131.2 966.762H-31.6485M131.2 966.762L49.7845 1143.03M131.2 966.762L212.615 1143.03M294.048 966.762H456.897M294.048 966.762L212.615 1143.03M294.048 966.762L375.464 1143.03M131.2 966.779L212.615 1143.03M131.2 966.779L294.031 966.779M131.2 966.779L49.7669 1143.03L-31.6485 966.779M131.2 966.779H-31.6485M-31.6485 966.762H-194.497M-31.6485 966.762L-113.064 1143.03M-31.6485 966.762L49.7845 1143.03M-31.6485 966.779L-113.064 1143.03M-31.6485 966.779H-194.497M-194.497 966.762L-275.912 1143.03M-194.497 966.762L-113.064 1143.03M-194.497 966.779L-113.064 1143.03M782.575 966.779L701.16 1143.03M782.575 966.779H619.727M782.575 966.779L863.991 1143.03M782.575 966.779H945.424M619.727 966.762H782.575M619.727 966.762H456.897M619.727 966.762L538.312 1143.03M619.727 966.762L701.16 1143.03M782.575 966.762L701.16 1143.03M782.575 966.762L863.991 1143.03M782.575 966.762H945.424M619.727 966.779L538.312 1143.03M619.727 966.779H456.879M619.727 966.779L701.16 1143.03M456.879 966.779L375.464 1143.03M456.879 966.779L294.031 966.779M456.879 966.779L538.312 1143.03M294.031 966.779L212.615 1143.03M294.031 966.779L375.464 1143.03M212.615 1143.03H375.464M212.615 1143.03H49.7845M212.615 1143.03L131.2 1319.34M212.615 1143.03L294.048 1319.34L375.464 1143.03M375.464 1143.03L456.879 966.762L538.312 1143.03M375.464 1143.03H538.312M375.464 1143.03L456.879 1319.34M375.464 1143.03L294.048 1319.31M375.464 1143.03L456.897 1319.31M538.312 1143.03H701.16M538.312 1143.03L619.727 1319.34M538.312 1143.03L456.897 1319.31M538.312 1143.03L619.727 1319.31M538.312 1143.03L456.879 1319.34M701.16 1143.03H863.991M701.16 1143.03L782.575 1319.34M701.16 1143.03L619.727 1319.31M701.16 1143.03L782.575 1319.31M701.16 1143.03L619.727 1319.34M863.991 1143.03L945.424 966.779M863.991 1143.03L945.424 966.762M863.991 1143.03H1026.84M863.991 1143.03L782.575 1319.34M863.991 1143.03L945.424 1319.34M863.991 1143.03L782.575 1319.31M863.991 1143.03L945.424 1319.31M-275.912 1143.03H-113.064M-275.912 1143.03L-194.497 1319.34M-113.064 1143.03H49.7845M-113.064 1143.03L-31.6485 1319.34M-113.064 1143.03L-194.497 1319.31M-113.064 1143.03L-31.6485 1319.31M-113.064 1143.03L-194.497 1319.34M49.7845 1143.03L131.2 1319.34M49.7845 1143.03L-31.6485 1319.31M49.7845 1143.03L131.2 1319.31M49.7845 1143.03L-31.6485 1319.34M1433.95 -90.9121L1352.52 85.3786M1433.95 -90.9121H1271.12M1433.95 -90.9121L1352.52 85.361M1433.95 -90.9121L1515.37 85.361M1433.95 -90.9121L1515.37 85.3786M1433.95 -90.9121H1596.8M1352.52 85.3786L1271.12 -90.9121M1352.52 85.3786L1271.12 261.652M1352.52 85.3786H1189.69M1352.52 85.3786L1433.95 261.652M1352.52 85.3786H1515.37M1271.12 -90.9121L1189.69 85.3786M1271.12 -90.9121H1108.25M1271.12 -90.9121L1189.69 85.361M1271.12 -90.9121L1352.52 85.361M1352.52 85.361H1515.37M1352.52 85.361H1189.69M1352.52 85.361L1271.12 261.652M1352.52 85.361L1433.95 261.652M1515.37 85.361L1596.8 -90.9121M1515.37 85.361H1678.21M1596.8 -90.9121L1515.37 85.3786M1596.8 -90.9121L1678.21 85.361M1596.8 -90.9121L1678.21 85.3786M1596.8 -90.9121H1759.63M1515.37 85.3786L1596.8 261.652M1515.37 85.3786H1678.21M1515.37 85.3786L1433.95 261.652M1678.21 85.361L1759.65 -90.9121L1841.06 85.361M1678.21 85.361H1841.06M1678.21 85.361L1596.8 261.652M1678.21 85.361L1759.65 261.652M1759.63 -90.9121L1678.21 85.3786M1759.63 -90.9121L1841.06 85.3786M1759.63 -90.9121H1922.48M1678.21 85.3786L1759.65 261.652M1678.21 85.3786H1841.06M1678.21 85.3786L1596.8 261.652M1841.06 85.361L1922.48 -90.9121M1841.06 85.361H2003.91L1922.48 -90.9121M1841.06 85.361L1759.65 261.652M1841.06 85.361L1922.48 261.652M1922.48 -90.9121L1841.06 85.3786M1841.06 85.3786L1922.48 261.652M1841.06 85.3786H2003.91L1922.48 261.652M1841.06 85.3786L1759.65 261.652M945.424 -90.9121L1026.84 85.361M945.424 -90.9121L1026.84 85.3786M945.424 -90.9121H1108.25M1026.84 85.361L1108.27 -90.9121L1189.69 85.361M1026.84 85.361H1189.69M1026.84 85.361L945.424 261.652M1026.84 85.361L1108.27 261.652M1108.25 -90.9121L1026.84 85.3786M1108.25 -90.9121L1189.69 85.3786M1026.84 85.3786L1108.27 261.652M1026.84 85.3786H1189.69M1026.84 85.3786L945.424 261.652M1189.69 85.361L1108.27 261.652M1189.69 85.361L1271.12 261.652M1189.69 85.3786L1271.12 261.652M1189.69 85.3786L1108.27 261.652M1271.12 261.652H1433.95M1271.12 261.652H1108.27M1271.12 261.652L1352.52 437.942M1271.12 261.652L1189.69 437.942M1271.12 261.652L1108.25 261.652M1271.12 261.652L1189.69 437.925M1271.12 261.652L1352.52 437.925M1433.95 261.652L1515.38 85.361L1596.8 261.652M1433.95 261.652H1596.8M1433.95 261.652L1352.52 437.942M1433.95 261.652L1352.52 437.925M1433.95 261.652L1515.37 437.925M1433.95 261.652L1515.37 437.942M1108.27 261.652H945.424M1108.27 261.652L1026.84 437.925M1108.27 261.652L1189.69 437.925M945.424 261.652L1026.84 437.925M945.424 261.652L1026.84 437.942M945.424 261.652L1108.25 261.652M1922.48 261.652L1759.65 261.652M1922.48 261.652L1841.06 437.942M1922.48 261.652H1759.63M1922.48 261.652L1841.06 437.925M1922.48 261.652L2003.91 437.925H1841.06M1759.65 261.652H1596.8M1759.65 261.652L1678.21 437.925M1759.65 261.652L1841.06 437.925M1596.8 261.652L1515.37 437.942M1596.8 261.652L1515.37 437.925M1596.8 261.652L1678.21 437.925M1596.8 261.652L1678.21 437.942M1596.8 261.652L1759.63 261.652M1352.52 437.942L1271.12 614.216M1352.52 437.942H1189.69M1352.52 437.942L1433.95 614.216M1352.52 437.942H1515.37M1352.52 437.925H1515.37M1352.52 437.925H1189.69M1352.52 437.925L1271.12 614.198M1352.52 437.925L1433.95 614.198M1515.37 437.925H1678.21M1515.37 437.942L1596.8 614.216M1515.37 437.942H1678.21M1515.37 437.942L1433.95 614.216M1678.21 437.925H1841.06M1678.21 437.925L1596.8 614.198M1678.21 437.925L1759.65 614.198M1759.63 261.652L1678.21 437.942M1759.63 261.652L1841.06 437.942M1678.21 437.942L1759.65 614.216L1841.06 437.942M1678.21 437.942H1841.06M1678.21 437.942L1596.8 614.216M1841.06 437.925L1759.65 614.198M1841.06 437.925L1922.48 614.198M1841.06 437.942L1922.48 614.216M1841.06 437.942H2003.91L1922.48 614.216M1026.84 437.925H1189.69M1026.84 437.925L945.424 614.198M1026.84 437.925L1108.27 614.198M1108.25 261.652L1026.84 437.942M1108.25 261.652L1189.69 437.942M1026.84 437.942L1108.27 614.216L1189.69 437.942M1026.84 437.942H1189.69M1026.84 437.942L945.424 614.216M1189.69 437.925L1108.27 614.198M1189.69 437.925L1271.12 614.198M1189.69 437.942L1271.12 614.216M1271.12 614.198H1433.95M1271.12 614.198H1108.27M1271.12 614.198L1189.69 790.489M1271.12 614.198L1352.52 790.489M1433.95 614.198L1515.38 437.925L1596.8 614.198M1433.95 614.198H1596.8M1433.95 614.198L1352.52 790.489M1433.95 614.198L1515.37 790.489M1271.12 614.216L1352.52 790.489M1271.12 614.216H1433.95M1271.12 614.216L1189.69 790.489M1271.12 614.216H1108.25M1108.27 614.198H945.424M1108.27 614.198L1026.84 790.489M1108.27 614.198L1189.69 790.489M945.424 614.198L1026.84 790.489M945.424 614.216L1026.84 790.489M945.424 614.216H1108.25M1922.48 614.216L1841.06 790.489M1922.48 614.216H1759.63M1759.65 614.198H1922.48M1759.65 614.198H1596.8M1759.65 614.198L1678.21 790.489M1759.65 614.198L1841.06 790.489M1922.48 614.198L1841.06 790.489M1922.48 614.198L2003.91 790.489M1596.8 614.198L1515.37 790.489M1596.8 614.198L1678.21 790.489M1596.8 614.216L1515.37 790.489M1596.8 614.216H1433.95M1596.8 614.216L1678.21 790.489M1596.8 614.216H1759.63M1433.95 614.216L1352.52 790.489M1433.95 614.216L1515.37 790.489M1352.52 790.489L1515.37 790.489M1352.52 790.489L1189.69 790.489M1352.52 790.489L1271.12 966.762M1352.52 790.489L1433.95 966.762M1352.52 790.489L1271.12 966.779M1352.52 790.489L1433.95 966.779M1515.37 790.489H1678.21M1515.37 790.489L1596.8 966.779M1515.37 790.489L1433.95 966.779M1678.21 790.489L1759.63 614.216M1678.21 790.489H1841.06M1678.21 790.489L1759.65 966.779L1841.06 790.489M1678.21 790.489L1596.8 966.762M1678.21 790.489L1759.65 966.762M1678.21 790.489L1596.8 966.779M1759.63 614.216L1841.06 790.489M1841.06 790.489H2003.91M1841.06 790.489L1922.48 966.779M1841.06 790.489L1759.65 966.762M1841.06 790.489L1922.48 966.762M2003.91 790.489L1922.48 966.779M1026.84 790.489L1108.25 614.216M1026.84 790.489H1189.69M1026.84 790.489L1108.27 966.779L1189.69 790.489M1026.84 790.489L945.424 966.762M1026.84 790.489L1108.27 966.762M1026.84 790.489L945.424 966.779M1108.25 614.216L1189.69 790.489M1189.69 790.489L1271.12 966.779M1189.69 790.489L1108.27 966.762M1189.69 790.489L1271.12 966.762M1271.12 966.762H1433.95M1271.12 966.762H1108.27M1271.12 966.762L1189.69 1143.03M1271.12 966.762L1352.52 1143.03M1433.95 966.762L1515.38 790.489L1596.8 966.762M1433.95 966.762H1596.8M1433.95 966.762L1352.52 1143.03M1433.95 966.762L1515.37 1143.03M1271.12 966.779L1352.52 1143.03M1271.12 966.779H1433.95M1271.12 966.779L1189.69 1143.03M1271.12 966.779L1108.25 966.779M1108.27 966.762H945.424M1108.27 966.762L1026.84 1143.03M1108.27 966.762L1189.69 1143.03M945.424 966.762L1026.84 1143.03M945.424 966.779L1026.84 1143.03M945.424 966.779L1108.25 966.779M1922.48 966.779L1841.06 1143.03M1922.48 966.779L1759.63 966.779M1759.65 966.762H1922.48M1759.65 966.762H1596.8M1759.65 966.762L1678.21 1143.03M1759.65 966.762L1841.06 1143.03M1922.48 966.762L1841.06 1143.03M1922.48 966.762L2003.91 1143.03M1596.8 966.762L1515.37 1143.03M1596.8 966.762L1678.21 1143.03M1596.8 966.779L1515.37 1143.03M1596.8 966.779H1433.95M1596.8 966.779L1678.21 1143.03M1596.8 966.779L1759.63 966.779M1433.95 966.779L1352.52 1143.03M1433.95 966.779L1515.37 1143.03M1352.52 1143.03H1515.37M1352.52 1143.03H1189.69M1352.52 1143.03L1271.12 1319.31M1352.52 1143.03L1433.95 1319.31M1352.52 1143.03L1271.12 1319.34M1352.52 1143.03L1433.95 1319.34M1515.37 1143.03H1678.21M1515.37 1143.03L1596.8 1319.34M1515.37 1143.03L1433.95 1319.34M1678.21 1143.03L1759.63 966.779M1678.21 1143.03H1841.06M1678.21 1143.03L1759.65 1319.34L1841.06 1143.03M1678.21 1143.03L1596.8 1319.31M1678.21 1143.03L1759.65 1319.31M1678.21 1143.03L1596.8 1319.34M1759.63 966.779L1841.06 1143.03M1841.06 1143.03H2003.91M1841.06 1143.03L1922.48 1319.34M1841.06 1143.03L1759.65 1319.31M1841.06 1143.03L1922.48 1319.31M2003.91 1143.03L1922.48 1319.34M1026.84 1143.03L1108.25 966.779M1026.84 1143.03H1189.69M1026.84 1143.03L1108.27 1319.34L1189.69 1143.03M1026.84 1143.03L945.424 1319.31M1026.84 1143.03L1108.27 1319.31M1026.84 1143.03L945.424 1319.34M1108.25 966.779L1189.69 1143.03M1189.69 1143.03L1271.12 1319.34M1189.69 1143.03L1108.27 1319.31M1189.69 1143.03L1271.12 1319.31M131.2 1319.31L212.633 1143.03L294.048 1319.31M131.2 1319.31H294.048M131.2 1319.31H-31.6485M131.2 1319.31L49.7845 1495.6M131.2 1319.31L212.615 1495.6M294.048 1319.31H456.897M294.048 1319.31L212.615 1495.6M294.048 1319.31L375.464 1495.6M131.2 1319.34L212.615 1495.6M131.2 1319.34H294.031M131.2 1319.34L49.7669 1495.6L-31.6485 1319.34M131.2 1319.34H-31.6485M-31.6485 1319.31H-194.497M-31.6485 1319.31L-113.064 1495.6M-31.6485 1319.31L49.7845 1495.6M-31.6485 1319.34L-113.064 1495.6M-31.6485 1319.34H-194.497M-194.497 1319.31L-275.912 1495.6M-194.497 1319.31L-113.064 1495.6M-194.497 1319.34L-113.064 1495.6M782.575 1319.34L701.16 1495.6M782.575 1319.34H619.727M782.575 1319.34L863.991 1495.6M782.575 1319.34H945.424M619.727 1319.31H782.575M619.727 1319.31H456.897M619.727 1319.31L538.312 1495.6M619.727 1319.31L701.16 1495.6M782.575 1319.31L701.16 1495.6M782.575 1319.31L863.991 1495.6M782.575 1319.31H945.424M619.727 1319.34L538.312 1495.6M619.727 1319.34H456.879M619.727 1319.34L701.16 1495.6M456.879 1319.34L375.464 1495.6M456.879 1319.34H294.031M456.879 1319.34L538.312 1495.6M294.031 1319.34L212.615 1495.6M294.031 1319.34L375.464 1495.6M212.615 1495.6H375.464M212.615 1495.6H49.7845M212.615 1495.6L131.2 1671.89M212.615 1495.6L294.048 1671.89M375.464 1495.6L456.879 1319.31L538.312 1495.6M375.464 1495.6H538.312M375.464 1495.6L456.879 1671.89M375.464 1495.6L294.048 1671.89M375.464 1495.6L456.897 1671.89M538.312 1495.6H701.16M538.312 1495.6L619.727 1671.89M538.312 1495.6L456.897 1671.89M538.312 1495.6L456.879 1671.89M701.16 1495.6H863.991M701.16 1495.6L782.575 1671.89M701.16 1495.6L619.727 1671.89M863.991 1495.6L782.575 1671.89M863.991 1495.6L945.424 1319.34M863.991 1495.6L945.424 1319.31M863.991 1495.6H1026.84M863.991 1495.6L945.424 1671.89M-275.912 1495.6H-113.064M-275.912 1495.6L-194.497 1671.89M-113.064 1495.6H49.7845M-113.064 1495.6L-31.6485 1671.89M-113.064 1495.6L-194.497 1671.89M49.7845 1495.6L131.2 1671.89M49.7845 1495.6L-31.6485 1671.89M131.2 1671.89L212.633 1495.6L294.048 1671.89M131.2 1671.89H294.048M131.2 1671.89H-31.6485M131.2 1671.89L212.615 1848.16M131.2 1671.89H294.031M131.2 1671.89L49.7669 1848.16L-31.6485 1671.89M131.2 1671.89L49.7845 1848.16M294.048 1671.89H456.897M294.048 1671.89L212.615 1848.16M294.048 1671.89L375.464 1848.16M-31.6485 1671.89H-194.497M-31.6485 1671.89L-113.064 1848.16M-31.6485 1671.89L49.7845 1848.16M-194.497 1671.89L-275.912 1848.16M-194.497 1671.89L-113.064 1848.16M782.575 1671.89H619.727M782.575 1671.89L701.16 1848.16M782.575 1671.89L863.991 1848.16M782.575 1671.89H945.424M619.727 1671.89H456.897M619.727 1671.89L538.312 1848.16M619.727 1671.89H456.879M619.727 1671.89L701.16 1848.16M456.879 1671.89L375.464 1848.16M456.879 1671.89H294.031M456.879 1671.89L538.312 1848.16M294.031 1671.89L212.615 1848.16M294.031 1671.89L375.464 1848.16M212.615 1848.16H375.464M212.615 1848.16H49.7845M212.615 1848.16L131.2 2024.45M212.615 1848.16L294.048 2024.45M375.464 1848.16H538.312M375.464 1848.16L456.879 2024.45L538.312 1848.16M375.464 1848.16L294.048 2024.45M375.464 1848.16L456.897 2024.45M538.312 1848.16H701.16M538.312 1848.16L619.727 2024.45M538.312 1848.16L456.897 2024.45M701.16 1848.16H863.991M701.16 1848.16L782.575 2024.45M701.16 1848.16L619.727 2024.45M863.991 1848.16L782.575 2024.45M863.991 1848.16L945.424 1671.89M863.991 1848.16H1026.84M863.991 1848.16L945.424 2024.45M-275.912 1848.16H-113.064M-275.912 1848.16L-194.497 2024.45M-113.064 1848.16H49.7845M-113.064 1848.16L-31.6485 2024.45M-113.064 1848.16L-194.497 2024.45M49.7845 1848.16L131.2 2024.45M49.7845 1848.16L-31.6485 2024.45M131.2 2024.45L212.633 1848.16L294.048 2024.45M131.2 2024.45H294.048M131.2 2024.45H-31.6485M294.048 2024.45H456.897M-31.6485 2024.45H-194.497M782.575 2024.45H619.727M782.575 2024.45H945.424M619.727 2024.45H456.897M1271.12 1319.31H1433.95M1271.12 1319.31H1108.27M1271.12 1319.31L1189.69 1495.6M1271.12 1319.31L1352.52 1495.6M1433.95 1319.31L1515.38 1143.03L1596.8 1319.31M1433.95 1319.31H1596.8M1433.95 1319.31L1352.52 1495.6M1433.95 1319.31L1515.37 1495.6M1271.12 1319.34L1352.52 1495.6M1271.12 1319.34H1433.95M1271.12 1319.34L1189.69 1495.6M1271.12 1319.34H1108.25M1108.27 1319.31H945.424M1108.27 1319.31L1026.84 1495.6M1108.27 1319.31L1189.69 1495.6M945.424 1319.31L1026.84 1495.6M945.424 1319.34L1026.84 1495.6M945.424 1319.34H1108.25M1922.48 1319.34L1841.06 1495.6M1922.48 1319.34H1759.63M1759.65 1319.31H1922.48M1759.65 1319.31H1596.8M1759.65 1319.31L1678.21 1495.6M1759.65 1319.31L1841.06 1495.6M1922.48 1319.31L1841.06 1495.6M1922.48 1319.31L2003.91 1495.6M1596.8 1319.31L1515.37 1495.6M1596.8 1319.31L1678.21 1495.6M1596.8 1319.34L1515.37 1495.6M1596.8 1319.34H1433.95M1596.8 1319.34L1678.21 1495.6M1596.8 1319.34H1759.63M1433.95 1319.34L1352.52 1495.6M1433.95 1319.34L1515.37 1495.6M1352.52 1495.6H1515.37M1352.52 1495.6H1189.69M1352.52 1495.6L1271.12 1671.89M1352.52 1495.6L1433.95 1671.89M1515.37 1495.6H1678.21M1515.37 1495.6L1596.8 1671.89M1515.37 1495.6L1433.95 1671.89M1678.21 1495.6L1759.63 1319.34M1678.21 1495.6H1841.06M1678.21 1495.6L1759.65 1671.89M1678.21 1495.6L1596.8 1671.89M1759.63 1319.34L1841.06 1495.6M1841.06 1495.6H2003.91M1841.06 1495.6L1922.48 1671.89M1841.06 1495.6L1759.65 1671.89M2003.91 1495.6L1922.48 1671.89M1026.84 1495.6L1108.25 1319.34M1026.84 1495.6H1189.69M1026.84 1495.6L1108.27 1671.89M1026.84 1495.6L945.424 1671.89M1108.25 1319.34L1189.69 1495.6M1189.69 1495.6L1271.12 1671.89M1189.69 1495.6L1108.27 1671.89M1271.12 1671.89H1433.95M1271.12 1671.89H1108.27M1271.12 1671.89L1352.52 1848.16M1271.12 1671.89L1189.69 1848.16M1271.12 1671.89H1108.25M1433.95 1671.89L1515.38 1495.6L1596.8 1671.89M1433.95 1671.89H1596.8M1433.95 1671.89L1352.52 1848.16M1433.95 1671.89L1515.37 1848.16M1108.27 1671.89H945.424M1108.27 1671.89L1026.84 1848.16M1108.27 1671.89L1189.69 1848.16M945.424 1671.89L1026.84 1848.16M945.424 1671.89H1108.25M1922.48 1671.89H1759.65M1922.48 1671.89L1841.06 1848.16M1922.48 1671.89H1759.63M1922.48 1671.89L2003.91 1848.16M1759.65 1671.89H1596.8M1759.65 1671.89L1678.21 1848.16M1759.65 1671.89L1841.06 1848.16M1596.8 1671.89L1515.37 1848.16M1596.8 1671.89L1678.21 1848.16M1596.8 1671.89H1759.63M1352.52 1848.16H1515.37M1352.52 1848.16H1189.69M1352.52 1848.16L1271.12 2024.45M1352.52 1848.16L1433.95 2024.45M1515.37 1848.16H1678.21M1515.37 1848.16L1596.8 2024.45M1515.37 1848.16L1433.95 2024.45M1678.21 1848.16L1759.63 1671.89M1678.21 1848.16H1841.06M1678.21 1848.16L1759.65 2024.45M1678.21 1848.16L1596.8 2024.45M1759.63 1671.89L1841.06 1848.16M1841.06 1848.16H2003.91M1841.06 1848.16L1922.48 2024.45M1841.06 1848.16L1759.65 2024.45M2003.91 1848.16L1922.48 2024.45M1026.84 1848.16L1108.25 1671.89M1026.84 1848.16H1189.69M1026.84 1848.16L1108.27 2024.45M1026.84 1848.16L945.424 2024.45M1108.25 1671.89L1189.69 1848.16M1189.69 1848.16L1271.12 2024.45M1189.69 1848.16L1108.27 2024.45M1271.12 2024.45H1433.95M1271.12 2024.45H1108.27M1433.95 2024.45L1515.38 1848.16L1596.8 2024.45M1433.95 2024.45H1596.8M1108.27 2024.45H945.424M1922.48 2024.45H1759.65M1759.65 2024.45H1596.8" stroke="url(#paint0_radial_48_3803)" stroke-width="0.1" stroke-linejoin="round"/>
</g>
<defs>
<radialGradient id="paint0_radial_48_3803" cx="0" cy="0" r="1" gradientUnits="userSpaceOnUse" gradientTransform="translate(864 756) rotate(90) scale(904 974.281)">
<stop stop-color="white"/>
<stop offset="1" stop-color="white" stop-opacity="0"/>
</radialGradient>
</defs>
</svg>
